<?xml version="1.0" encoding="UTF-8" standalone="no"?>
<svg
   xmlns:dc="http://purl.org/dc/elements/1.1/"
   xmlns:cc="http://creativecommons.org/ns#"
   xmlns:rdf="http://www.w3.org/1999/02/22-rdf-syntax-ns#"
   xmlns:svg="http://www.w3.org/2000/svg"
   xmlns="http://www.w3.org/2000/svg"
   height="50"
   width="200.63168"
   id="svg32"
   version="1.1"
   viewBox="0 0 200.63168 50">
  <metadata
     id="metadata36">
    <rdf:RDF>
      <cc:Work
         rdf:about="">
        <dc:format>image/svg+xml</dc:format>
        <dc:type
           rdf:resource="http://purl.org/dc/dcmitype/StillImage" />
      </cc:Work>
    </rdf:RDF>
  </metadata>
  <defs
     id="defs4">
    <style
       id="style2">.cls-1{fill:#FFFFFF;}.cls-2{fill:#0062ff;}</style>
  </defs>
  <title
     id="title6">cybertek_logo_dark</title>
  <g
     transform="translate(-0.00219594)"
     data-name="Layer 2"
     id="Layer_2">
    <g
       data-name="Layer 1"
       id="Layer_1-2">
      <path
         style="fill:#FFFFFF"
         id="path8"
         d="m 84.84,13 a 0.62,0.62 0 0 1 0.61,0.67 v 2 c 0,0.36 -0.16,0.52 -0.48,0.52 h -6.28 c -2.44,0 -4,0.61 -4.79,1.8 -0.79,1.19 -1.1,3.53 -1.1,7.01 0,3.48 0.36,5.92 1.1,7.11 0.74,1.19 2.35,1.77 4.79,1.77 H 85 a 0.43,0.43 0 0 1 0.48,0.49 v 2 a 0.63,0.63 0 0 1 -0.61,0.71 39.34,39.34 0 0 1 -6.15,0.39 c -4.08,0 -6.47,-0.68 -8,-2.64 -1.53,-1.96 -2,-4.86 -2,-9.85 0,-4.99 0.48,-7.86 2,-9.82 1.52,-1.96 3.92,-2.64 8,-2.64 A 36,36 0 0 1 84.84,13 Z"
         class="cls-1" />
      <path
         style="fill:#FFFFFF"
         id="path10"
         d="m 102.87,19.56 a 0.42,0.42 0 0 1 0.48,0.48 v 16.29 a 10.63,10.63 0 0 1 -0.84,5.08 c -0.87,1.84 -3,2.55 -6.82,2.55 A 39.08,39.08 0 0 1 90.25,43.6 0.46,0.46 0 0 1 89.83,43.09 v -1.9 c 0,-0.32 0.16,-0.48 0.45,-0.48 h 5.18 a 5.06,5.06 0 0 0 3.19,-0.71 3.27,3.27 0 0 0 0.8,-2.61 v -0.16 a 26.13,26.13 0 0 1 -4.12,0.29 c -2.93,0 -4.92,-0.61 -6,-1.8 C 88.25,34.53 87.87,32.27 87.87,29 v -9 a 0.42,0.42 0 0 1 0.48,-0.48 h 2.93 A 0.42,0.42 0 0 1 91.76,20 v 8.4 c 0,2.35 0.26,3.86 0.74,4.6 0.48,0.74 1.67,1.07 3.44,1.07 a 25.27,25.27 0 0 0 3.51,-0.2 V 20 a 0.43,0.43 0 0 1 0.49,-0.48 z"
         class="cls-1" />
      <path
         style="fill:#FFFFFF"
         id="path12"
         d="m 110,12.76 a 0.43,0.43 0 0 1 0.49,0.49 v 6.34 a 35.06,35.06 0 0 1 4.12,-0.2 c 3,0 4.92,0.62 5.89,1.84 0.97,1.22 1.5,3.64 1.5,7.24 0,3.6 -0.32,5.76 -1.52,7.21 -1.2,1.45 -3,1.84 -6.37,1.84 a 42,42 0 0 1 -6.89,-0.58 0.63,0.63 0 0 1 -0.61,-0.68 v -23 a 0.43,0.43 0 0 1 0.48,-0.49 z m 0.49,10 v 11.1 a 27.24,27.24 0 0 0 3.6,0.26 c 1.74,0 2.84,-0.36 3.29,-1.1 0.45,-0.74 0.67,-2.25 0.67,-4.57 0,-2.32 -0.22,-3.92 -0.71,-4.63 -0.49,-0.71 -1.57,-1.06 -3.34,-1.06 z"
         class="cls-1" />
      <path
         style="fill:#FFFFFF"
         id="path14"
         d="m 138.67,21.17 c 1.19,1.38 1.51,3.31 1.55,7 v 1 c 0,0.65 -0.23,0.87 -1.1,0.87 h -10.2 c 0,1.71 0.32,2.84 0.83,3.38 0.51,0.54 1.58,0.81 3.16,0.81 h 5.5 a 0.43,0.43 0 0 1 0.49,0.48 v 2 a 0.51,0.51 0 0 1 -0.45,0.54 40.42,40.42 0 0 1 -5.77,0.36 c -3.12,0 -5.18,-0.58 -6.18,-1.77 -1,-1.19 -1.5,-3.73 -1.5,-7.37 0,-3.64 0.48,-6.08 1.48,-7.27 1,-1.19 3.09,-1.81 6.21,-1.81 3.12,0 4.82,0.39 5.98,1.78 z m -9,2.51 a 6,6 0 0 0 -0.77,3.47 h 7.37 c 0,-1.74 -0.26,-2.89 -0.74,-3.47 -0.48,-0.58 -1.42,-0.9 -2.87,-0.9 -1.45,0 -2.49,0.28 -2.97,0.9 z"
         class="cls-1" />
      <path
         style="fill:#FFFFFF"
         id="path16"
         d="m 152.83,19.75 c 0.36,0.1 0.52,0.29 0.52,0.58 v 2 c 0,0.36 -0.19,0.52 -0.55,0.49 h -2.93 c -2,0 -2.51,0.32 -2.51,1.73 v 12.32 a 0.43,0.43 0 0 1 -0.48,0.49 H 144 a 0.43,0.43 0 0 1 -0.48,-0.49 V 23.52 c 0,-1.81 0.67,-3 1.86,-3.51 a 8,8 0 0 1 3.58,-0.62 15.46,15.46 0 0 1 3.87,0.36 z"
         class="cls-1" />
      <path
         style="fill:#FFFFFF"
         id="path18"
         d="m 160.27,14.63 c 0.35,-0.1 0.54,0 0.54,0.45 v 4.51 H 164 c 0.36,0 0.52,0.16 0.52,0.48 v 2 c 0,0.35 -0.16,0.51 -0.52,0.51 h -3.19 v 9.82 c 0,1.42 0.42,1.71 2,1.71 h 1.42 c 0.35,0 0.54,0.16 0.54,0.45 v 2.12 a 0.53,0.53 0 0 1 -0.48,0.58 12.3,12.3 0 0 1 -2.28,0.23 9.92,9.92 0 0 1 -2.87,-0.26 c -1.42,-0.39 -2.12,-1.32 -2.25,-3.67 v -11 h -1.84 a 0.44,0.44 0 0 1 -0.51,-0.51 v -2 c 0,-0.32 0.16,-0.48 0.51,-0.48 h 1.84 v -3.7 a 0.5,0.5 0 0 1 0.45,-0.52 z"
         class="cls-1" />
      <path
         style="fill:#FFFFFF"
         id="path20"
         d="m 180.64,21.17 c 1.19,1.38 1.52,3.31 1.55,7 v 1 c 0,0.65 -0.23,0.87 -1.1,0.87 h -10.2 c 0,1.71 0.32,2.84 0.84,3.38 0.52,0.54 1.57,0.81 3.15,0.81 h 5.51 a 0.42,0.42 0 0 1 0.48,0.48 v 2 a 0.51,0.51 0 0 1 -0.45,0.54 40.37,40.37 0 0 1 -5.76,0.36 c -3.13,0 -5.19,-0.58 -6.19,-1.77 -1,-1.19 -1.47,-3.73 -1.47,-7.37 0,-3.64 0.48,-6.08 1.48,-7.27 1,-1.19 3.09,-1.81 6.22,-1.81 3.13,0 4.78,0.39 5.94,1.78 z m -9,2.51 a 6,6 0 0 0 -0.77,3.47 h 7.37 c 0,-1.74 -0.26,-2.89 -0.74,-3.47 -0.48,-0.58 -1.42,-0.9 -2.86,-0.9 -1.44,0 -2.5,0.28 -2.98,0.9 z"
         class="cls-1" />
      <path
         style="fill:#FFFFFF"
         id="path22"
         d="m 188.91,12.76 c 0.33,0 0.49,0.17 0.49,0.52 v 12.49 l 4.95,-5.89 a 0.77,0.77 0 0 1 0.68,-0.32 h 3.48 c 0.54,0 0.64,0.19 0.29,0.61 l -5.44,6.4 7.08,9.92 c 0.35,0.38 0.26,0.87 -0.55,0.87 h -3.12 A 0.89,0.89 0 0 1 196.06,37 l -6.66,-9.56 v 9.4 c 0,0.36 -0.16,0.52 -0.49,0.52 H 186 c -0.33,0 -0.49,-0.16 -0.49,-0.52 V 13.28 c 0,-0.35 0.16,-0.52 0.49,-0.52 z"
         class="cls-1" />
      <path
         style="fill:#FFFFFF"
         id="path24"
         d="m 84.84,13 a 0.62,0.62 0 0 1 0.61,0.67 v 2 c 0,0.36 -0.16,0.52 -0.48,0.52 h -6.28 c -2.44,0 -4,0.61 -4.79,1.8 -0.79,1.19 -1.1,3.53 -1.1,7.01 0,3.48 0.36,5.92 1.1,7.11 0.74,1.19 2.35,1.77 4.79,1.77 H 85 a 0.43,0.43 0 0 1 0.48,0.49 v 2 a 0.63,0.63 0 0 1 -0.61,0.71 39.34,39.34 0 0 1 -6.15,0.39 c -4.08,0 -6.47,-0.68 -8,-2.64 -1.53,-1.96 -2,-4.86 -2,-9.85 0,-4.99 0.48,-7.86 2,-9.82 1.52,-1.96 3.92,-2.64 8,-2.64 A 36,36 0 0 1 84.84,13 Z"
         class="cls-1" />
      <path
         style="fill:#0062ff"
         id="path26"
         d="M 42.78,1.82 37.7,8.54 a 1.93,1.93 0 0 0 -0.13,2.11 l 4.54,7.86 a 1.14,1.14 0 0 1 -1,1.7 H 24.05 a 1.46,1.46 0 0 0 -1.25,0.71 l -1.72,3 a 2.18,2.18 0 0 0 0,2.18 l 1.72,3 a 1.46,1.46 0 0 0 1.25,0.71 h 17.08 a 1.14,1.14 0 0 1 1,1.7 l -4.54,7.86 a 1.93,1.93 0 0 0 0.13,2.11 l 5.08,6.72 a 0.48,0.48 0 0 0 0.79,0 L 55.42,27.61 a 5.23,5.23 0 0 0 0,-5.22 L 43.57,1.87 A 0.48,0.48 0 0 0 42.78,1.82 Z"
         class="cls-2" />
      <path
         style="fill:#FFFFFF"
         id="path28"
         d="m 30.44,40.41 h -10 A 2.17,2.17 0 0 1 18.55,39.32 L 10.89,26.09 a 2.18,2.18 0 0 1 0,-2.18 l 7.64,-13.23 a 2.17,2.17 0 0 1 1.89,-1.09 h 10 A 1.89,1.89 0 0 0 32,8.82 L 38,0.77 A 0.48,0.48 0 0 0 37.65,0 h -21 A 5.23,5.23 0 0 0 12.13,2.61 L 0.7,22.39 a 5.23,5.23 0 0 0 0,5.22 L 12.12,47.39 A 5.23,5.23 0 0 0 16.64,50 h 21 a 0.48,0.48 0 0 0 0.38,-0.77 l -6.06,-8 a 1.89,1.89 0 0 0 -1.52,-0.82 z"
         class="cls-1" />
    </g>
  </g>
</svg>
