<?xml version="1.0" encoding="utf-8"?>
<!-- Generator: Adobe Illustrator 24.0.1, SVG Export Plug-In . SVG Version: 6.00 Build 0)  -->
<svg version="1.1" id="Layer_1" xmlns="http://www.w3.org/2000/svg" xmlns:xlink="http://www.w3.org/1999/xlink" x="0px" y="0px"
	 viewBox="0 0 500 168.21" style="enable-background:new 0 0 500 168.21;" xml:space="preserve">
<style type="text/css">
	.st0{fill:#FFFFFF;}
	.st1{fill:#FCED20;}
</style>
<g>
	<g>
		<rect x="251.35" y="63.73" width="61.28" height="54.28"/>
		<rect x="187.69" y="63.73" width="61.28" height="54.28"/>
		<rect x="315.01" y="63.73" width="61.28" height="54.28"/>
		<rect x="187.69" width="61.28" height="61.35"/>
		<rect x="251.35" width="61.28" height="61.35"/>
		<rect x="378.67" y="120.39" width="61.28" height="47.82"/>
		<rect x="442.32" width="57.68" height="61.35"/>
		<rect x="315.01" width="61.28" height="61.35"/>
		<rect y="63.73" width="58" height="54.28"/>
		<rect x="378.67" width="61.28" height="61.35"/>
		<rect x="124.04" width="61.28" height="61.35"/>
		<rect x="378.67" y="63.73" width="121.33" height="54.28"/>
		<rect x="124.04" y="63.73" width="61.28" height="54.28"/>
		<rect width="58" height="61.35"/>
		<rect x="442.32" y="120.39" width="57.68" height="47.82"/>
		<rect y="120.39" width="58" height="47.82"/>
		<rect x="315.01" y="120.39" width="61.28" height="47.82"/>
		<rect x="60.38" y="63.73" width="61.28" height="54.28"/>
		<rect x="60.38" width="61.28" height="61.35"/>
		<rect x="124.04" y="120.39" width="188.59" height="47.82"/>
		<rect x="60.38" y="120.39" width="61.28" height="47.82"/>
	</g>
	<g>
		<path class="st0" d="M12.54,15.2h15.37c9.77,0,13.33,2.37,13.33,8.07c0,3.04-1.57,5.22-4.55,6.5c3.84,1.33,5.84,3.94,5.84,7.69
			c0,6.64-3.8,9.25-15.18,9.25h-14.8V15.2z M25.64,28.11c2.75,0,3.7-0.95,3.7-3.04c0-2.09-0.9-3.23-2.99-3.23H24.5v6.26H25.64z
			 M26.3,40.06c2.56,0,3.8-0.95,3.8-3.32c0-2.42-0.9-3.56-3.61-3.56H24.5v6.88H26.3z"/>
		<path class="st0" d="M73,31c0-9.92,7.4-16.51,17.79-16.51c10.15,0,17.41,6.45,17.41,16.42c0,9.92-7.4,16.51-17.79,16.51
			C80.26,47.42,73,40.96,73,31z M95.35,31.66v-1.52c0-4.89-1.28-7.12-4.74-7.12c-3.46,0-4.74,2.23-4.74,7.21v1.52
			c0,4.89,1.28,7.12,4.74,7.12C94.07,38.88,95.35,36.65,95.35,31.66z"/>
		<path class="st0" d="M136.4,31c0-9.92,7.4-16.51,17.79-16.51c10.15,0,17.41,6.45,17.41,16.42c0,9.92-7.4,16.51-17.79,16.51
			C143.66,47.42,136.4,40.96,136.4,31z M158.75,31.66v-1.52c0-4.89-1.28-7.12-4.74-7.12s-4.74,2.23-4.74,7.21v1.52
			c0,4.89,1.28,7.12,4.74,7.12S158.75,36.65,158.75,31.66z"/>
		<path class="st0" d="M211.57,23.46h-7.26V15.2h26.85v8.26h-7.26V46.7h-12.34V23.46z"/>
		<path class="st0" d="M265.76,31.05c0-10.25,6.74-16.56,16.89-16.56c9.06,0,14.19,5.22,15.13,13.19h-9.87
			c-0.43-2.37-2.04-4.41-4.79-4.41c-3.46,0-4.65,2.04-4.65,7.07v1.23c0,5.03,1.14,7.07,4.41,7.07c2.99,0,4.65-1.61,4.98-5.41h10.2
			c-0.24,10.15-6.69,14.19-15.61,14.19C272.26,47.42,265.76,41.2,265.76,31.05z"/>
		<path class="st0" d="M339.36,15.2h13.33l10.2,31.5h-12.95l-1.9-6.45h-8.07l-1.9,6.45h-9.21L339.36,15.2z M346.72,34.08l-2.37-8.54
			l-2.8,8.54H346.72z"/>
		<path class="st0" d="M389.81,15.2h18.03l2.66,11.29l2.37-11.29h17.89v31.5h-12.1V23.6l-5.79,23.11h-8.35l-5.74-23.11V46.7h-8.97
			V15.2z"/>
		<path class="st0" d="M459.9,15.2h14.9c9.68,0,13.52,3.23,13.52,10.48c0,6.31-4.36,11.58-14.75,11.58h-1.33v9.44H459.9V15.2z
			 M473.04,31.19c3.61-0.28,3.89-2.66,3.89-5.5c0-2.66-1.19-3.94-3.94-3.94h-0.76v9.44H473.04z"/>
		<path class="st0" d="M20.66,76.38h13.33l10.2,31.5H31.24l-1.9-6.45h-8.07l-1.9,6.45h-9.2L20.66,76.38z M28.01,95.26l-2.37-8.54
			l-2.8,8.54H28.01z"/>
		<path class="st0" d="M73.62,76.38h12.86l6.22,17.89l5.98-17.89h9.2l-11.53,31.5H85L73.62,76.38z"/>
		<path class="st0" d="M141.38,76.38h26.05v7.83h-13.9v3.89h7.45v8.07h-7.45v3.65h14.14v8.07h-26.28V76.38z"/>
		<path class="st0" d="M202.27,76.38h13.43l9.49,14.85V76.38h8.97v31.5h-11.77l-11.15-17.93v17.93h-8.97V76.38z"/>
		<path class="st0" d="M267.99,95.07V76.38h12.34v19.03c0,3.61,0.95,4.74,3.98,4.74c2.85,0,3.75-1,3.75-4.13V76.38h8.97v19.64
			c0,8.63-4.08,12.57-13.71,12.57C272.02,108.6,267.99,104.52,267.99,95.07z"/>
		<path class="st0" d="M332.67,76.38h26.05v7.83h-13.9v3.89h7.45v8.07h-7.45v3.65h14.14v8.07h-26.28V76.38z"/>
	</g>
	<circle class="st1" cx="397.63" cy="102.95" r="6.58"/>
</g>
</svg>
