<?xml version="1.0" encoding="utf-8"?>
<!-- Generator: Adobe Illustrator 24.0.1, SVG Export Plug-In . SVG Version: 6.00 Build 0)  -->
<svg version="1.1" id="Layer_1" xmlns="http://www.w3.org/2000/svg" xmlns:xlink="http://www.w3.org/1999/xlink" x="0px" y="0px"
	 viewBox="0 0 500 150.19" style="enable-background:new 0 0 500 150.19;" xml:space="preserve">
<style type="text/css">
	.st0{fill:#FFFFFF;}
	.st1{fill:#FCED20;}
</style>
<g>
	<g>
		<path d="M3.52,4.65h23.14c14.71,0,20.07,3.57,20.07,12.14c0,4.57-2.36,7.86-6.86,9.78c5.78,2,8.78,5.93,8.78,11.57
			c0,10-5.71,13.92-22.85,13.92H3.52V4.65z M23.23,24.07c4.14,0,5.57-1.43,5.57-4.57c0-3.14-1.36-4.86-4.5-4.86h-2.78v9.43H23.23z
			 M24.23,42.07c3.86,0,5.71-1.43,5.71-5c0-3.64-1.36-5.36-5.43-5.36h-3v10.35H24.23z"/>
		<path d="M63.82,28.43c0-14.92,11.14-24.85,26.78-24.85c15.28,0,26.21,9.71,26.21,24.71c0,14.92-11.14,24.85-26.78,24.85
			C74.75,53.13,63.82,43.42,63.82,28.43z M97.46,29.43v-2.28c0-7.36-1.93-10.71-7.14-10.71c-5.21,0-7.14,3.36-7.14,10.85v2.29
			c0,7.36,1.93,10.71,7.14,10.71C95.53,40.28,97.46,36.93,97.46,29.43z"/>
		<path d="M128.55,28.43c0-14.92,11.14-24.85,26.78-24.85c15.28,0,26.21,9.71,26.21,24.71c0,14.92-11.14,24.85-26.78,24.85
			C139.48,53.13,128.55,43.42,128.55,28.43z M162.19,29.43v-2.28c0-7.36-1.93-10.71-7.14-10.71c-5.21,0-7.14,3.36-7.14,10.85v2.29
			c0,7.36,1.93,10.71,7.14,10.71C160.26,40.28,162.19,36.93,162.19,29.43z"/>
		<path d="M204.86,17.07h-10.93V4.65h40.42v12.42h-10.93v34.99h-18.57V17.07z"/>
		<path d="M249.59,28.5c0-15.43,10.14-24.92,25.42-24.92c13.64,0,21.35,7.85,22.78,19.85h-14.85c-0.64-3.57-3.07-6.64-7.21-6.64
			c-5.21,0-7,3.07-7,10.64v1.86c0,7.57,1.71,10.64,6.64,10.64c4.5,0,7-2.43,7.5-8.14h15.35c-0.36,15.28-10.07,21.35-23.49,21.35
			C259.37,53.13,249.59,43.78,249.59,28.5z"/>
		<path d="M326.2,4.65h20.07l15.35,47.42h-19.49l-2.86-9.71h-12.14l-2.86,9.71h-13.85L326.2,4.65z M337.27,33.07l-3.57-12.85
			l-4.21,12.85H337.27z"/>
		<path d="M376.14,4.65h27.14l4,16.99l3.57-16.99h26.92v47.42h-18.21V17.29l-8.71,34.78h-12.57l-8.64-34.78v34.78h-13.5V4.65z"/>
		<path d="M455.22,4.65h22.42C492.22,4.65,498,9.5,498,20.43c0,9.5-6.57,17.42-22.21,17.42h-2v14.21h-18.57V4.65z M475.01,28.71
			c5.43-0.43,5.86-4,5.86-8.28c0-4-1.78-5.93-5.93-5.93h-1.14v14.21H475.01z"/>
		<path d="M17.78,96.73h20.07l15.35,47.42h-19.5l-2.86-9.71H18.71l-2.86,9.71H2L17.78,96.73z M28.85,125.15l-3.57-12.85l-4.21,12.85
			H28.85z"/>
		<path d="M64.75,96.73h19.35l9.36,26.92l9-26.92h13.85l-17.35,47.42H81.89L64.75,96.73z"/>
		<path d="M131.96,96.73h39.2v11.78h-20.92v5.86h11.21v12.14h-11.21v5.5h21.28v12.14h-39.56V96.73z"/>
		<path d="M190.86,96.73h20.21l14.28,22.35V96.73h13.5v47.42h-17.71l-16.78-26.99v26.99h-13.5V96.73z"/>
		<path d="M259.09,124.87V96.73h18.57v28.63c0,5.43,1.43,7.14,6,7.14c4.28,0,5.64-1.5,5.64-6.21V96.73h13.5v29.56
			c0,13-6.14,18.92-20.64,18.92C265.16,145.22,259.09,139.08,259.09,124.87z"/>
		<path d="M321.65,96.73h39.21v11.78h-20.92v5.86h11.21v12.14h-11.21v5.5h21.28v12.14h-39.56V96.73z"/>
	</g>
	<circle cx="392.82" cy="136.72" r="9.9"/>
</g>
</svg>
